<svg width="140" height="162" viewBox="0 0 140 162" fill="none" xmlns="http://www.w3.org/2000/svg">
<path d="M27.0204 24.8081L70 0L112.98 24.8081L97.1782 33.9729L70 18.3296L42.8218 33.9729L27.0204 24.8081ZM112.98 56.0947L97.1782 46.93L70 62.5733L42.8218 46.93L27.0204 56.0947V74.4243L54.1986 90.0673V121.354L70 130.519L85.8016 121.354V90.0673L112.98 74.4243V56.0947ZM112.98 105.711V87.3814L97.1782 96.5458V114.875L112.98 105.711ZM124.198 112.189L97.0203 127.832V146.162L140 121.354V71.7377L124.198 80.9029V112.189ZM108.398 40.4514L124.198 49.6161V67.9458L140 58.7809V40.4514L124.198 31.2866L108.398 40.4514ZM54.1986 134.47V152.799L70 161.964L85.8016 152.799V134.47L70 143.634L54.1986 134.47ZM27.0204 105.711L42.8218 114.875V96.5458L27.0204 87.3814V105.711ZM54.1986 40.4514L70 49.6161L85.8016 40.4514L70 31.2866L54.1986 40.4514ZM15.8013 49.6161L31.6027 40.4514L15.8013 31.2866L0 40.4514V58.7809L15.8013 67.9458V49.6161ZM15.8013 80.9029L0 71.7377V121.354L42.9795 146.162V127.832L15.8013 112.189V80.9029Z" fill="#F0B90B"/>
</svg>
