<svg width="13" height="8" viewBox="0 0 13 8" fill="none" xmlns="http://www.w3.org/2000/svg">
<path fill-rule="evenodd" clip-rule="evenodd" d="M7.45488 1.60777L13 0L11.6198 5.6061L9.89804 3.9532L7.12069 6.84627C7.02641 6.94448 6.89615 7 6.76 7C6.62385 7 6.49359 6.94448 6.39931 6.84627L4.36 4.72199L1.36069 7.84627C1.16946 8.04547 0.85294 8.05193 0.653735 7.86069C0.454529 7.66946 0.44807 7.35294 0.639307 7.15373L3.99931 3.65373C4.09359 3.55552 4.22385 3.5 4.36 3.5C4.49615 3.5 4.62641 3.55552 4.72069 3.65373L6.76 5.77801L9.17665 3.26067L7.45488 1.60777Z" fill="#1C1C1C"/>
</svg>
