<svg width="20" height="20" viewBox="0 0 20 20" fill="none" xmlns="http://www.w3.org/2000/svg">
<path d="M9.375 1.875V18.125C9.375 18.4702 9.65482 18.75 10 18.75C10.3452 18.75 10.625 18.4702 10.625 18.125V1.875C10.625 1.52982 10.3452 1.25 10 1.25C9.65482 1.25 9.375 1.52982 9.375 1.875Z" fill="white"/>
<path d="M6.35723 14.8928C5.625 14.1605 5.625 13.125 5.625 13.125C5.625 12.7798 5.34518 12.5 5 12.5C4.65482 12.5 4.375 12.7798 4.375 13.125C4.375 14.6783 5.47335 15.7767 5.47335 15.7767C6.5717 16.875 8.125 16.875 8.125 16.875H11.875C13.4283 16.875 14.5267 15.7767 14.5267 15.7767C15.625 14.6783 15.625 13.125 15.625 13.125C15.625 11.5717 14.5267 10.4734 14.5267 10.4734C13.4283 9.375 11.875 9.375 11.875 9.375H8.4375C7.40197 9.375 6.66973 8.64277 6.66973 8.64277C5.9375 7.91053 5.9375 6.875 5.9375 6.875C5.9375 5.83947 6.66973 5.10723 6.66973 5.10723C7.40197 4.375 8.4375 4.375 8.4375 4.375H11.25C11.7473 4.375 12.2067 4.5653 12.2067 4.5653C12.6661 4.7556 13.0178 5.10723 13.0178 5.10723C13.3694 5.45887 13.5597 5.91829 13.5597 5.91829C13.75 6.37772 13.75 6.875 13.75 6.875C13.75 7.22018 14.0298 7.5 14.375 7.5C14.7202 7.5 15 7.22018 15 6.875C15 6.12908 14.7145 5.43994 14.7145 5.43994C14.4291 4.7508 13.9017 4.22335 13.9017 4.22335C13.3742 3.6959 12.6851 3.41045 12.6851 3.41045C11.9959 3.125 11.25 3.125 11.25 3.125H8.4375C6.8842 3.125 5.78585 4.22335 5.78585 4.22335C4.6875 5.3217 4.6875 6.875 4.6875 6.875C4.6875 8.4283 5.78585 9.52665 5.78585 9.52665C6.8842 10.625 8.4375 10.625 8.4375 10.625H11.875C12.9105 10.625 13.6428 11.3572 13.6428 11.3572C14.375 12.0895 14.375 13.125 14.375 13.125C14.375 14.1605 13.6428 14.8928 13.6428 14.8928C12.9105 15.625 11.875 15.625 11.875 15.625H8.125C7.08947 15.625 6.35723 14.8928 6.35723 14.8928Z" fill="white"/>
</svg>
