<svg width="36" height="36" viewBox="0 0 36 36" fill="none" xmlns="http://www.w3.org/2000/svg">
<rect width="36" height="36" rx="6" fill="#1EBD23"/>
<mask id="mask0_88_3982" style="mask-type:luminance" maskUnits="userSpaceOnUse" x="5" y="3" width="25" height="30">
<path d="M29.8132 3.85718H5.50391V32.1429H29.8132V3.85718Z" fill="white"/>
</mask>
<g mask="url(#mask0_88_3982)">
<path d="M25.0826 8.16369L22.4264 9.71969L20.3831 10.9142L17.7112 12.4754L15.0393 10.9142L14.9345 10.8513L12.9961 9.71969L10.3398 8.16369L13.0065 6.60769L15.055 5.40794L17.7112 3.85718L20.3674 5.40794L22.4159 6.60769L25.0826 8.16369Z" fill="white"/>
<path d="M25.1497 13.7014V22.3563L22.4778 23.9176V18.3956L20.3822 19.6215V25.1435L17.7103 26.7047L14.9336 25.0806V19.5587L12.8379 18.3327V23.8547L10.166 22.2934V13.759L12.8379 12.1978L12.9375 12.1401L14.9336 13.3084L15.6094 13.7014L17.7103 14.9326L19.8111 13.7014L20.3822 13.3713L22.4778 12.1454L22.4831 12.1401L25.1497 13.7014Z" fill="white"/>
<path d="M29.8132 10.9298V25.0753L27.246 26.5737L25.1504 27.7996L20.32 30.6235L17.7109 32.1428L15.1019 30.6235L10.1667 27.7367L8.07105 26.5108L5.50391 25.0124V10.9875L8.23346 9.39478L10.1667 10.5212L10.8949 10.9455L10.1667 11.3699L8.07105 12.5958V23.4617L10.1667 24.6876L12.8386 26.2488L14.9342 27.4748L15.6625 27.8992L17.7109 29.0989L19.7594 27.8992L20.3829 27.5377L22.4785 26.3117L25.1504 24.7505L27.246 23.5245V12.533L25.1504 11.307L24.527 10.9455L25.1504 10.584L27.1884 9.39478L29.8132 10.9298Z" fill="white"/>
</g>
</svg>
