<svg width="194" height="36" viewBox="0 0 194 36" fill="none" xmlns="http://www.w3.org/2000/svg">
<rect width="36" height="36" rx="6" fill="#1EBD23"/>
<mask id="mask0_88_3982" style="mask-type:luminance" maskUnits="userSpaceOnUse" x="5" y="3" width="25" height="30">
<path d="M29.8132 3.85718H5.50391V32.1429H29.8132V3.85718Z" fill="white"/>
</mask>
<g mask="url(#mask0_88_3982)">
<path d="M25.0826 8.16369L22.4264 9.71969L20.3831 10.9142L17.7112 12.4754L15.0393 10.9142L14.9345 10.8513L12.9961 9.71969L10.3398 8.16369L13.0065 6.60769L15.055 5.40794L17.7112 3.85718L20.3674 5.40794L22.4159 6.60769L25.0826 8.16369Z" fill="white"/>
<path d="M25.1497 13.7014V22.3563L22.4778 23.9176V18.3956L20.3822 19.6215V25.1435L17.7103 26.7047L14.9336 25.0806V19.5587L12.8379 18.3327V23.8547L10.166 22.2934V13.759L12.8379 12.1978L12.9375 12.1401L14.9336 13.3084L15.6094 13.7014L17.7103 14.9326L19.8111 13.7014L20.3822 13.3713L22.4778 12.1454L22.4831 12.1401L25.1497 13.7014Z" fill="white"/>
<path d="M29.8132 10.9298V25.0753L27.246 26.5737L25.1504 27.7996L20.32 30.6235L17.7109 32.1428L15.1019 30.6235L10.1667 27.7367L8.07105 26.5108L5.50391 25.0124V10.9875L8.23346 9.39478L10.1667 10.5212L10.8949 10.9455L10.1667 11.3699L8.07105 12.5958V23.4617L10.1667 24.6876L12.8386 26.2488L14.9342 27.4748L15.6625 27.8992L17.7109 29.0989L19.7594 27.8992L20.3829 27.5377L22.4785 26.3117L25.1504 24.7505L27.246 23.5245V12.533L25.1504 11.307L24.527 10.9455L25.1504 10.584L27.1884 9.39478L29.8132 10.9298Z" fill="white"/>
</g>
<path d="M51.9858 14.5653C51.9176 13.8778 51.625 13.3437 51.108 12.9631C50.5909 12.5824 49.8892 12.392 49.0028 12.392C48.4006 12.392 47.892 12.4773 47.4773 12.6477C47.0625 12.8125 46.7443 13.0426 46.5227 13.3381C46.3068 13.6335 46.1989 13.9688 46.1989 14.3438C46.1875 14.6562 46.2528 14.929 46.3949 15.1619C46.5426 15.3949 46.7443 15.5966 47 15.767C47.2557 15.9318 47.5511 16.0767 47.8864 16.2017C48.2216 16.321 48.5795 16.4233 48.9602 16.5085L50.5284 16.8835C51.2898 17.054 51.9886 17.2812 52.625 17.5653C53.2614 17.8494 53.8125 18.1989 54.2784 18.6136C54.7443 19.0284 55.1051 19.517 55.3608 20.0795C55.6222 20.642 55.7557 21.2869 55.7614 22.0142C55.7557 23.0824 55.483 24.0085 54.9432 24.7926C54.4091 25.571 53.6364 26.1761 52.625 26.608C51.6193 27.0341 50.4063 27.2472 48.9858 27.2472C47.5767 27.2472 46.3494 27.0312 45.304 26.5994C44.2642 26.1676 43.4517 25.5284 42.8665 24.6818C42.2869 23.8295 41.983 22.7756 41.9545 21.5199H45.5256C45.5653 22.1051 45.733 22.5937 46.0284 22.9858C46.3295 23.3722 46.7301 23.6648 47.2301 23.8636C47.7358 24.0568 48.3068 24.1534 48.9432 24.1534C49.5682 24.1534 50.1108 24.0625 50.571 23.8807C51.0369 23.6989 51.3977 23.446 51.6534 23.1222C51.9091 22.7983 52.0369 22.4261 52.0369 22.0057C52.0369 21.6136 51.9205 21.2841 51.6875 21.017C51.4602 20.75 51.125 20.5227 50.6818 20.3352C50.2443 20.1477 49.7074 19.9773 49.071 19.8239L47.1705 19.3466C45.6989 18.9886 44.5369 18.429 43.6847 17.6676C42.8324 16.9062 42.4091 15.8807 42.4148 14.5909C42.4091 13.5341 42.6903 12.6108 43.2585 11.821C43.8324 11.0312 44.6193 10.4148 45.6193 9.97159C46.6193 9.52841 47.7557 9.30682 49.0284 9.30682C50.3239 9.30682 51.4545 9.52841 52.4205 9.97159C53.392 10.4148 54.1477 11.0312 54.6875 11.821C55.2273 12.6108 55.5057 13.5256 55.5227 14.5653H51.9858ZM58.1754 27V13.9091H61.6357V16.2188H61.7891C62.0618 15.4517 62.5163 14.8466 63.1527 14.4034C63.7891 13.9602 64.5504 13.7386 65.4368 13.7386C66.3345 13.7386 67.0987 13.9631 67.7294 14.4119C68.3601 14.8551 68.7805 15.4574 68.9908 16.2188H69.1271C69.3942 15.4688 69.8771 14.8693 70.576 14.4205C71.2805 13.9659 72.1129 13.7386 73.0732 13.7386C74.2947 13.7386 75.2862 14.1278 76.0476 14.9062C76.8146 15.679 77.1982 16.7756 77.1982 18.196V27H73.576V18.9119C73.576 18.1847 73.3828 17.6392 72.9964 17.2756C72.6101 16.9119 72.1271 16.7301 71.5476 16.7301C70.8885 16.7301 70.3743 16.9403 70.005 17.3608C69.6357 17.7756 69.451 18.3239 69.451 19.0057V27H65.9311V18.8352C65.9311 18.1932 65.7464 17.6818 65.3771 17.3011C65.0135 16.9205 64.5334 16.7301 63.9368 16.7301C63.5334 16.7301 63.1697 16.8324 62.8459 17.0369C62.5277 17.2358 62.2749 17.517 62.0874 17.8807C61.8999 18.2386 61.8061 18.6591 61.8061 19.142V27H58.1754ZM83.799 27.2472C82.9638 27.2472 82.2195 27.1023 81.5661 26.8125C80.9126 26.517 80.3956 26.0824 80.0149 25.5085C79.6399 24.929 79.4524 24.2074 79.4524 23.3438C79.4524 22.6165 79.5859 22.0057 79.853 21.5114C80.12 21.017 80.4837 20.6193 80.9439 20.3182C81.4041 20.017 81.9268 19.7898 82.5121 19.6364C83.103 19.483 83.7223 19.375 84.37 19.3125C85.1314 19.233 85.745 19.1591 86.2109 19.0909C86.6768 19.017 87.0149 18.9091 87.2251 18.767C87.4354 18.625 87.5405 18.4148 87.5405 18.1364V18.0852C87.5405 17.5455 87.37 17.1278 87.0291 16.8324C86.6939 16.5369 86.2166 16.3892 85.5973 16.3892C84.9439 16.3892 84.424 16.5341 84.0376 16.8239C83.6513 17.108 83.3956 17.4659 83.2706 17.8977L79.9126 17.625C80.0831 16.8295 80.4183 16.142 80.9183 15.5625C81.4183 14.9773 82.0632 14.5284 82.853 14.2159C83.6484 13.8977 84.5689 13.7386 85.6143 13.7386C86.3416 13.7386 87.0376 13.8239 87.7024 13.9943C88.3729 14.1648 88.9666 14.429 89.4837 14.7869C90.0064 15.1449 90.4183 15.6051 90.7195 16.1676C91.0206 16.7244 91.1712 17.392 91.1712 18.1705V27H87.728V25.1847H87.6257C87.4155 25.5938 87.1342 25.9545 86.782 26.267C86.4297 26.5739 86.0064 26.8153 85.5121 26.9915C85.0178 27.1619 84.4467 27.2472 83.799 27.2472ZM84.8388 24.7415C85.3729 24.7415 85.8445 24.6364 86.2536 24.4261C86.6626 24.2102 86.9837 23.9205 87.2166 23.5568C87.4496 23.1932 87.5661 22.7812 87.5661 22.321V20.9318C87.4524 21.0057 87.2962 21.0739 87.0973 21.1364C86.9041 21.1932 86.6854 21.2472 86.4411 21.2983C86.1967 21.3437 85.9524 21.3864 85.7081 21.4261C85.4638 21.4602 85.2422 21.4915 85.0433 21.5199C84.6172 21.5824 84.245 21.6818 83.9268 21.8182C83.6087 21.9545 83.3615 22.1392 83.1854 22.3722C83.0092 22.5994 82.9212 22.8835 82.9212 23.2244C82.9212 23.7188 83.1001 24.0966 83.4581 24.358C83.8217 24.6136 84.282 24.7415 84.8388 24.7415ZM93.9879 27V13.9091H97.5078V16.1932H97.6442C97.8828 15.3807 98.2834 14.767 98.8459 14.3523C99.4084 13.9318 100.056 13.7216 100.789 13.7216C100.971 13.7216 101.167 13.733 101.377 13.7557C101.587 13.7784 101.772 13.8097 101.931 13.8494V17.071C101.761 17.0199 101.525 16.9744 101.224 16.9347C100.923 16.8949 100.647 16.875 100.397 16.875C99.8629 16.875 99.3857 16.9915 98.9652 17.2244C98.5504 17.4517 98.2209 17.7699 97.9766 18.179C97.7379 18.5881 97.6186 19.0597 97.6186 19.5938V27H93.9879ZM111.428 13.9091V16.6364H103.544V13.9091H111.428ZM105.334 10.7727H108.964V22.9773C108.964 23.3125 109.016 23.5739 109.118 23.7614C109.22 23.9432 109.362 24.071 109.544 24.1449C109.732 24.2187 109.947 24.2557 110.192 24.2557C110.362 24.2557 110.533 24.2415 110.703 24.2131C110.874 24.179 111.004 24.1534 111.095 24.1364L111.666 26.8381C111.484 26.8949 111.229 26.9602 110.899 27.0341C110.57 27.1136 110.169 27.1619 109.697 27.179C108.822 27.2131 108.055 27.0966 107.396 26.8295C106.743 26.5625 106.234 26.1477 105.871 25.5852C105.507 25.0227 105.328 24.3125 105.334 23.4545V10.7727ZM119.347 27V13.9091H122.808V16.2188H122.961C123.234 15.4517 123.688 14.8466 124.325 14.4034C124.961 13.9602 125.722 13.7386 126.609 13.7386C127.506 13.7386 128.271 13.9631 128.901 14.4119C129.532 14.8551 129.952 15.4574 130.163 16.2188H130.299C130.566 15.4688 131.049 14.8693 131.748 14.4205C132.452 13.9659 133.285 13.7386 134.245 13.7386C135.467 13.7386 136.458 14.1278 137.219 14.9062C137.987 15.679 138.37 16.7756 138.37 18.196V27H134.748V18.9119C134.748 18.1847 134.555 17.6392 134.168 17.2756C133.782 16.9119 133.299 16.7301 132.719 16.7301C132.06 16.7301 131.546 16.9403 131.177 17.3608C130.808 17.7756 130.623 18.3239 130.623 19.0057V27H127.103V18.8352C127.103 18.1932 126.918 17.6818 126.549 17.3011C126.185 16.9205 125.705 16.7301 125.109 16.7301C124.705 16.7301 124.342 16.8324 124.018 17.0369C123.7 17.2358 123.447 17.517 123.259 17.8807C123.072 18.2386 122.978 18.6591 122.978 19.142V27H119.347ZM144.971 27.2472C144.136 27.2472 143.391 27.1023 142.738 26.8125C142.085 26.517 141.567 26.0824 141.187 25.5085C140.812 24.929 140.624 24.2074 140.624 23.3438C140.624 22.6165 140.758 22.0057 141.025 21.5114C141.292 21.017 141.656 20.6193 142.116 20.3182C142.576 20.017 143.099 19.7898 143.684 19.6364C144.275 19.483 144.894 19.375 145.542 19.3125C146.303 19.233 146.917 19.1591 147.383 19.0909C147.849 19.017 148.187 18.9091 148.397 18.767C148.607 18.625 148.712 18.4148 148.712 18.1364V18.0852C148.712 17.5455 148.542 17.1278 148.201 16.8324C147.866 16.5369 147.388 16.3892 146.769 16.3892C146.116 16.3892 145.596 16.5341 145.21 16.8239C144.823 17.108 144.567 17.4659 144.442 17.8977L141.085 17.625C141.255 16.8295 141.59 16.142 142.09 15.5625C142.59 14.9773 143.235 14.5284 144.025 14.2159C144.82 13.8977 145.741 13.7386 146.786 13.7386C147.513 13.7386 148.21 13.8239 148.874 13.9943C149.545 14.1648 150.138 14.429 150.656 14.7869C151.178 15.1449 151.59 15.6051 151.891 16.1676C152.192 16.7244 152.343 17.392 152.343 18.1705V27H148.9V25.1847H148.798C148.587 25.5938 148.306 25.9545 147.954 26.267C147.602 26.5739 147.178 26.8153 146.684 26.9915C146.19 27.1619 145.619 27.2472 144.971 27.2472ZM146.011 24.7415C146.545 24.7415 147.016 24.6364 147.425 24.4261C147.835 24.2102 148.156 23.9205 148.388 23.5568C148.621 23.1932 148.738 22.7812 148.738 22.321V20.9318C148.624 21.0057 148.468 21.0739 148.269 21.1364C148.076 21.1932 147.857 21.2472 147.613 21.2983C147.369 21.3437 147.124 21.3864 146.88 21.4261C146.636 21.4602 146.414 21.4915 146.215 21.5199C145.789 21.5824 145.417 21.6818 145.099 21.8182C144.781 21.9545 144.533 22.1392 144.357 22.3722C144.181 22.5994 144.093 22.8835 144.093 23.2244C144.093 23.7188 144.272 24.0966 144.63 24.358C144.994 24.6136 145.454 24.7415 146.011 24.7415ZM162.123 13.9091V16.6364H154.239V13.9091H162.123ZM156.029 10.7727H159.66V22.9773C159.66 23.3125 159.711 23.5739 159.813 23.7614C159.915 23.9432 160.058 24.071 160.239 24.1449C160.427 24.2187 160.643 24.2557 160.887 24.2557C161.058 24.2557 161.228 24.2415 161.398 24.2131C161.569 24.179 161.7 24.1534 161.79 24.1364L162.362 26.8381C162.18 26.8949 161.924 26.9602 161.594 27.0341C161.265 27.1136 160.864 27.1619 160.393 27.179C159.518 27.2131 158.751 27.0966 158.092 26.8295C157.438 26.5625 156.93 26.1477 156.566 25.5852C156.202 25.0227 156.023 24.3125 156.029 23.4545V10.7727ZM164.488 27V13.9091H168.008V16.1932H168.144C168.383 15.3807 168.783 14.767 169.346 14.3523C169.908 13.9318 170.556 13.7216 171.289 13.7216C171.471 13.7216 171.667 13.733 171.877 13.7557C172.087 13.7784 172.272 13.8097 172.431 13.8494V17.071C172.261 17.0199 172.025 16.9744 171.724 16.9347C171.423 16.8949 171.147 16.875 170.897 16.875C170.363 16.875 169.886 16.9915 169.465 17.2244C169.05 17.4517 168.721 17.7699 168.477 18.179C168.238 18.5881 168.119 19.0597 168.119 19.5938V27H164.488ZM174.308 27V13.9091H177.939V27H174.308ZM176.132 12.2216C175.592 12.2216 175.129 12.0426 174.743 11.6847C174.362 11.321 174.172 10.8864 174.172 10.3807C174.172 9.88068 174.362 9.4517 174.743 9.09375C175.129 8.73011 175.592 8.54829 176.132 8.54829C176.672 8.54829 177.132 8.73011 177.513 9.09375C177.899 9.4517 178.092 9.88068 178.092 10.3807C178.092 10.8864 177.899 11.321 177.513 11.6847C177.132 12.0426 176.672 12.2216 176.132 12.2216ZM183.881 13.9091L186.285 18.4858L188.748 13.9091H192.472L188.68 20.4545L192.575 27H188.867L186.285 22.4744L183.745 27H179.995L183.881 20.4545L180.131 13.9091H183.881Z" fill="white"/>
</svg>
