<svg width="141" height="130" viewBox="0 0 141 130" fill="none" xmlns="http://www.w3.org/2000/svg">
<path d="M133.218 0.152344L78.5273 40.6879L88.6976 16.799L133.218 0.152344Z" fill="#E17726" stroke="#E17726" stroke-width="0.25" stroke-linecap="round" stroke-linejoin="round"/>
<path d="M7.06738 0.152344L61.2713 41.0662L51.5883 16.7989L7.06738 0.152344Z" fill="#E27625" stroke="#E27625" stroke-width="0.25" stroke-linecap="round" stroke-linejoin="round"/>
<path d="M113.527 94.1406L98.9746 116.408L130.134 125.002L139.06 94.627L113.527 94.1406Z" fill="#E27625" stroke="#E27625" stroke-width="0.25" stroke-linecap="round" stroke-linejoin="round"/>
<path d="M1.27832 94.627L10.15 125.002L41.2552 116.408L26.7574 94.1406L1.27832 94.627Z" fill="#E27625" stroke="#E27625" stroke-width="0.25" stroke-linecap="round" stroke-linejoin="round"/>
<path d="M39.5782 56.5238L30.9229 69.6034L61.7576 71.0087L60.7295 37.7695L39.5782 56.5238Z" fill="#E27625" stroke="#E27625" stroke-width="0.25" stroke-linecap="round" stroke-linejoin="round"/>
<path d="M100.706 56.5234L79.2302 37.3906L78.5273 71.0083L109.362 69.603L100.706 56.5234Z" fill="#E27625" stroke="#E27625" stroke-width="0.25" stroke-linecap="round" stroke-linejoin="round"/>
<path d="M41.2549 116.409L59.9177 107.383L43.8516 94.8438L41.2549 116.409Z" fill="#E27625" stroke="#E27625" stroke-width="0.25" stroke-linecap="round" stroke-linejoin="round"/>
<path d="M80.3662 107.383L98.9749 116.409L96.4328 94.8438L80.3662 107.383Z" fill="#E27625" stroke="#E27625" stroke-width="0.25" stroke-linecap="round" stroke-linejoin="round"/>
<path d="M98.9753 116.409L80.3662 107.383L81.8811 119.489L81.7187 124.624L98.9753 116.409Z" fill="#D5BFB2" stroke="#D5BFB2" stroke-width="0.25" stroke-linecap="round" stroke-linejoin="round"/>
<path d="M41.2549 116.409L58.5657 124.624L58.4574 119.489L59.9181 107.383L41.2549 116.409Z" fill="#D5BFB2" stroke="#D5BFB2" stroke-width="0.25" stroke-linecap="round" stroke-linejoin="round"/>
<path d="M58.8905 86.8456L43.4189 82.3058L54.3467 77.2793L58.8905 86.8456Z" fill="#233447" stroke="#233447" stroke-width="0.25" stroke-linecap="round" stroke-linejoin="round"/>
<path d="M81.3936 86.8456L85.9378 77.2793L96.9192 82.3058L81.3936 86.8456Z" fill="#233447" stroke="#233447" stroke-width="0.25" stroke-linecap="round" stroke-linejoin="round"/>
<path d="M41.2556 116.408L43.9602 94.1406L26.7578 94.6274L41.2556 116.408Z" fill="#CC6228" stroke="#CC6228" stroke-width="0.25" stroke-linecap="round" stroke-linejoin="round"/>
<path d="M96.3252 94.1406L98.976 116.408L113.528 94.6274L96.3252 94.1406Z" fill="#CC6228" stroke="#CC6228" stroke-width="0.25" stroke-linecap="round" stroke-linejoin="round"/>
<path d="M109.362 69.6035L78.5273 71.0087L81.3943 86.8446L85.9385 77.2783L96.9199 82.3048L109.362 69.6035Z" fill="#CC6228" stroke="#CC6228" stroke-width="0.25" stroke-linecap="round" stroke-linejoin="round"/>
<path d="M43.4189 82.3048L54.3462 77.2783L58.8905 86.8446L61.7574 71.0087L30.9229 69.6035L43.4189 82.3048Z" fill="#CC6228" stroke="#CC6228" stroke-width="0.25" stroke-linecap="round" stroke-linejoin="round"/>
<path d="M30.9229 69.6035L43.8518 94.8438L43.4191 82.3048L30.9229 69.6035Z" fill="#E27525" stroke="#E27525" stroke-width="0.25" stroke-linecap="round" stroke-linejoin="round"/>
<path d="M96.9204 82.3048L96.4336 94.8438L109.363 69.6035L96.9204 82.3048Z" fill="#E27525" stroke="#E27525" stroke-width="0.25" stroke-linecap="round" stroke-linejoin="round"/>
<path d="M61.758 71.0078L58.8906 86.8441L62.515 105.544L63.3266 80.8986L61.758 71.0078Z" fill="#E27525" stroke="#E27525" stroke-width="0.25" stroke-linecap="round" stroke-linejoin="round"/>
<path d="M78.5276 71.0078L77.0127 80.8448L77.7701 105.544L81.3945 86.8441L78.5276 71.0078Z" fill="#E27525" stroke="#E27525" stroke-width="0.25" stroke-linecap="round" stroke-linejoin="round"/>
<path d="M81.3949 86.8425L77.7705 105.543L80.3672 107.381L96.4338 94.8418L96.9205 82.3027L81.3949 86.8425Z" fill="#F5841F" stroke="#F5841F" stroke-width="0.25" stroke-linecap="round" stroke-linejoin="round"/>
<path d="M43.4189 82.3027L43.852 94.8418L59.9181 107.381L62.5148 105.543L58.8905 86.8425L43.4189 82.3027Z" fill="#F5841F" stroke="#F5841F" stroke-width="0.25" stroke-linecap="round" stroke-linejoin="round"/>
<path d="M81.7186 124.624L81.881 119.489L80.4744 118.3H59.8099L58.4574 119.489L58.5657 124.624L41.2549 116.408L47.314 121.381L59.5933 129.866H80.6368L92.9707 121.381L98.9752 116.408L81.7186 124.624Z" fill="#C0AC9D" stroke="#C0AC9D" stroke-width="0.25" stroke-linecap="round" stroke-linejoin="round"/>
<path d="M80.3671 107.381L77.7704 105.543H62.5155L59.9188 107.381L58.458 119.487L59.8105 118.298H80.475L81.8816 119.487L80.3671 107.381Z" fill="#161616" stroke="#161616" stroke-width="0.25" stroke-linecap="round" stroke-linejoin="round"/>
<path d="M135.544 43.3361L140.142 20.9606L133.218 0.152344L80.3662 39.3369L100.706 56.5237L129.431 64.9013L135.76 57.4969L133.001 55.4968L137.383 51.4976L134.029 48.9032L138.411 45.5522L135.544 43.3361Z" fill="#763E1A" stroke="#763E1A" stroke-width="0.25" stroke-linecap="round" stroke-linejoin="round"/>
<path d="M0.142578 20.9606L4.79482 43.3361L1.81956 45.5522L6.2554 48.9032L2.90147 51.4976L7.28321 55.4968L4.52432 57.4969L10.8535 64.9013L39.5786 56.5237L59.9183 39.3369L7.06684 0.152344L0.142578 20.9606Z" fill="#763E1A" stroke="#763E1A" stroke-width="0.25" stroke-linecap="round" stroke-linejoin="round"/>
<path d="M129.432 64.903L100.707 56.5254L109.363 69.605L96.4336 94.8453L113.528 94.6288H139.061L129.432 64.903Z" fill="#F5841F" stroke="#F5841F" stroke-width="0.25" stroke-linecap="round" stroke-linejoin="round"/>
<path d="M39.579 56.5254L10.8543 64.903L1.2793 94.6288H26.7584L43.8526 94.8453L30.9238 69.605L39.579 56.5254Z" fill="#F5841F" stroke="#F5841F" stroke-width="0.25" stroke-linecap="round" stroke-linejoin="round"/>
<path d="M78.5272 71.0103L80.3664 39.3387L88.6974 16.8008H51.5879L59.9185 39.3387L61.7577 71.0103L62.461 80.955L62.5152 105.547H77.7702L77.8243 80.955L78.5272 71.0103Z" fill="#F5841F" stroke="#F5841F" stroke-width="0.25" stroke-linecap="round" stroke-linejoin="round"/>
</svg>
