<svg width="20" height="20" viewBox="0 0 20 20" fill="none" xmlns="http://www.w3.org/2000/svg">
<path d="M13.75 10C13.75 12.0711 12.0711 13.75 10 13.75C7.92892 13.75 6.25 12.0711 6.25 10C6.25 7.92892 7.92892 6.25 10 6.25C12.0711 6.25 13.75 7.92892 13.75 10Z" fill="white" fill-opacity="0.1"/>
<path d="M17.9417 2.94218L17.9419 2.94194C18.0592 2.82473 18.125 2.66576 18.125 2.5C18.125 2.33424 18.0592 2.17527 17.9419 2.05806L17.9416 2.0577L17.9365 2.05273L17.9362 2.05237C17.8195 1.93865 17.663 1.875 17.5 1.875C17.4813 1.875 17.4625 1.87584 17.4438 1.87753C17.2981 1.89068 17.1615 1.95457 17.0581 2.05806L17.0578 2.05829L9.55829 9.55782L9.55806 9.55806C9.44085 9.67527 9.375 9.83424 9.375 10C9.375 10.01 9.37524 10.02 9.37572 10.03C9.38319 10.1852 9.44819 10.3321 9.55806 10.4419C9.67527 10.5592 9.83424 10.625 10 10.625C10.1658 10.625 10.3247 10.5592 10.4419 10.4419L10.4422 10.4417L17.9417 2.94218Z" fill="white"/>
<path d="M17.3298 6.49651C17.2261 6.27908 17.0066 6.14063 16.7657 6.14062L16.7543 6.14073C16.665 6.14236 16.5772 6.16309 16.4966 6.20153C16.347 6.2729 16.2319 6.40078 16.1765 6.55704C16.1528 6.62402 16.1407 6.69456 16.1407 6.76562L16.1407 6.76732C16.141 6.85987 16.1618 6.9512 16.2016 7.03473L16.2018 7.03504C16.7592 8.20367 16.8544 9.49495 16.8544 9.49495C16.9496 10.7864 16.5695 12.0243 16.5695 12.0243C16.1894 13.2622 15.3858 14.2777 15.3858 14.2777C14.5823 15.2931 13.4648 15.9476 13.4648 15.9476C12.3474 16.602 11.0687 16.8062 11.0687 16.8062C9.7899 17.0103 8.52428 16.7363 8.52428 16.7363C7.25865 16.4622 6.17886 15.7474 6.17886 15.7474C5.09906 15.0326 4.35244 13.9746 4.35244 13.9746C3.60582 12.9165 3.29425 11.6596 3.29425 11.6596C2.98268 10.4027 3.14867 9.11841 3.14867 9.11841C3.31466 7.83414 3.93557 6.69775 3.93557 6.69775C4.55648 5.56136 5.54757 4.72791 5.54757 4.72791C6.53867 3.89447 7.76472 3.47769 7.76472 3.47769C8.99077 3.06092 10.2845 3.11768 10.2845 3.11768C11.5782 3.17444 12.763 3.69699 12.763 3.69699C13.9467 4.21902 14.8603 5.13475 14.8603 5.13475C14.8609 5.13528 14.8614 5.13582 14.8614 5.13582L14.8622 5.13659C14.9792 5.25397 15.1381 5.32006 15.3038 5.32031L15.3048 5.32031C15.3145 5.32031 15.3242 5.32008 15.3339 5.31963C15.4891 5.3124 15.636 5.24762 15.746 5.13792C15.8634 5.02088 15.9295 4.86201 15.9298 4.69625L15.9298 4.69531C15.9298 4.68561 15.9295 4.67591 15.9291 4.66622C15.9219 4.51102 15.8571 4.36407 15.7474 4.25403L15.7467 4.25337C14.6668 3.17044 13.2674 2.55328 13.2674 2.55328C11.8677 1.93594 10.3393 1.86888 10.3393 1.86888C8.81088 1.80182 7.36241 2.2942 7.36241 2.2942C5.91395 2.78659 4.74306 3.77122 4.74306 3.77122C3.57217 4.75586 2.83863 6.0984 2.83863 6.0984C2.10509 7.44093 1.90898 8.95818 1.90898 8.95818C1.71288 10.4754 2.08097 11.9603 2.08097 11.9603C2.44906 13.4453 3.33113 14.6953 3.33113 14.6953C4.21319 15.9452 5.48886 16.7897 5.48886 16.7897C6.76454 17.6342 8.25976 17.9579 8.25976 17.9579C9.75498 18.2817 11.2657 18.0405 11.2657 18.0405C12.7764 17.7994 14.0966 17.0262 14.0966 17.0262C15.4167 16.253 16.366 15.0534 16.366 15.0534C17.3154 13.8537 17.7645 12.3912 17.7645 12.3912C18.2135 10.9287 18.101 9.40302 18.101 9.40302C17.9886 7.87785 17.3303 6.49753 17.3303 6.49753L17.3298 6.49651Z" fill="white"/>
<path d="M13.5153 12.6003C14.4554 11.3308 14.3657 9.75367 14.3657 9.75367C14.3469 9.4228 14.0731 9.16413 13.7417 9.16413L13.7412 9.16413C13.7295 9.16414 13.7179 9.16448 13.7063 9.16514C13.5408 9.17455 13.3858 9.24931 13.2754 9.37298C13.1732 9.4875 13.1167 9.63563 13.1167 9.78913L13.1167 9.79081C13.1168 9.80208 13.1171 9.81334 13.1177 9.8246C13.1817 10.9503 12.5107 11.8565 12.5107 11.8565C11.8398 12.7626 10.7444 13.0298 10.7444 13.0298C9.64895 13.2971 8.63606 12.8017 8.63606 12.8017C7.62318 12.3063 7.16158 11.2776 7.16158 11.2776C6.69997 10.2489 7.00328 9.16294 7.00328 9.16294C7.30659 8.07697 8.23444 7.43633 8.23444 7.43633C9.16229 6.79569 10.2853 6.89686 10.2853 6.89686C11.4078 6.99799 12.206 7.79357 12.206 7.79357L12.2067 7.79419C12.3238 7.91103 12.4825 7.97663 12.648 7.97663L12.6489 7.97663C12.8146 7.9764 12.9735 7.91033 13.0905 7.79295C13.2074 7.67579 13.273 7.51709 13.273 7.35163L13.273 7.35075C13.2727 7.18499 13.2067 7.02612 13.0893 6.90907C11.9707 5.79364 10.3974 5.6519 10.3974 5.6519C8.82413 5.51016 7.52421 6.4077 7.52421 6.4077C6.22429 7.30524 5.79936 8.82669 5.79936 8.82669C5.37442 10.3481 6.02113 11.7894 6.02113 11.7894C6.66783 13.2306 8.08689 13.9246 8.08689 13.9246C9.50594 14.6186 11.0406 14.2442 11.0406 14.2442C12.5753 13.8698 13.5153 12.6003 13.5153 12.6003Z" fill="white"/>
</svg>
