<svg width="96" height="96" viewBox="0 0 96 96" fill="none" xmlns="http://www.w3.org/2000/svg">
<path d="M48 96C74.5097 96 96 74.5097 96 48C96 21.4903 74.5097 0 48 0C21.4903 0 0 21.4903 0 48C0 74.5097 21.4903 96 48 96Z" fill="#F0B90B"/>
<path d="M47.9186 11.2075L57.0931 20.5605L34.0969 43.6613L24.9229 34.5288L47.9186 11.2075Z" fill="white" stroke="white"/>
<path d="M61.8452 25.0724L71.0197 34.4255L34.1597 71.4531L24.9857 62.3206L61.8452 25.0724Z" fill="white" stroke="white"/>
<path d="M20.1904 39.0632L29.3649 48.4163L20.2324 57.5903L11.0584 48.4578L20.1904 39.0632Z" fill="white" stroke="white"/>
<path d="M75.7719 38.9357L84.9464 48.2887L48.0865 85.3164L38.9124 76.1839L75.7719 38.9357Z" fill="white" stroke="white"/>
</svg>
