<svg width="20" height="20" viewBox="0 0 20 20" fill="none" xmlns="http://www.w3.org/2000/svg">
<path d="M13.75 6.5625C13.75 8.11584 10.9518 9.375 7.5 9.375C4.04822 9.375 1.25 8.11584 1.25 6.5625C1.25 5.00916 4.04822 3.75 7.5 3.75C10.9518 3.75 13.75 5.00916 13.75 6.5625Z" fill="white" fill-opacity="0.1"/>
<path d="M13.75 7.55469C16.6016 7.82034 18.75 8.95316 18.75 10.3126C18.75 11.8671 15.9531 13.1251 12.5 13.1251C10.9688 13.1251 9.5625 12.875 8.47656 12.4688C11.4688 12.2578 13.75 11.0938 13.75 9.68756V7.55469Z" fill="white" fill-opacity="0.1"/>
<path fill-rule="evenodd" clip-rule="evenodd" d="M7.5 3.125C7.5 3.125 10.223 3.125 12.1759 4.00381C12.1759 4.00381 13.1545 4.4442 13.7143 5.0397C13.7143 5.0397 14.375 5.74268 14.375 6.5625C14.375 6.5625 14.375 7.38232 13.7143 8.0853C13.7143 8.0853 13.1545 8.6808 12.1759 9.12119C12.1759 9.12119 10.223 10 7.5 10C7.5 10 4.77702 10 2.8241 9.12119C2.8241 9.12119 1.84547 8.6808 1.28575 8.0853C1.28575 8.0853 0.625 7.38232 0.625 6.5625C0.625 6.5625 0.625 5.74268 1.28575 5.0397C1.28575 5.0397 1.84547 4.4442 2.8241 4.00381C2.8241 4.00381 4.77702 3.125 7.5 3.125ZM7.5 4.375C7.5 4.375 5.04531 4.375 3.33706 5.14371C3.33706 5.14371 2.58564 5.48185 2.19657 5.8958C2.19657 5.8958 1.875 6.23792 1.875 6.5625C1.875 6.5625 1.875 6.88708 2.19657 7.2292C2.19657 7.2292 2.58564 7.64315 3.33706 7.98129C3.33706 7.98129 5.04531 8.75 7.5 8.75C7.5 8.75 9.95469 8.75 11.6629 7.98129C11.6629 7.98129 12.4144 7.64315 12.8034 7.2292C12.8034 7.2292 13.125 6.88708 13.125 6.5625C13.125 6.5625 13.125 6.23792 12.8034 5.8958C12.8034 5.8958 12.4144 5.48185 11.6629 5.14371C11.6629 5.14371 9.95469 4.375 7.5 4.375Z" fill="white"/>
<path d="M14.375 9.6875V6.5625C14.375 6.21732 14.0952 5.9375 13.75 5.9375C13.4048 5.9375 13.125 6.21732 13.125 6.5625V9.6875C13.125 10.0127 12.8035 10.3549 12.8035 10.3549C12.4147 10.7688 11.6635 11.1068 11.6635 11.1068C9.95602 11.875 7.5 11.875 7.5 11.875C5.04398 11.875 3.33652 11.1068 3.33652 11.1068C2.58533 10.7688 2.19649 10.3549 2.19649 10.3549C1.875 10.0127 1.875 9.6875 1.875 9.6875L1.875 6.5625C1.875 6.21732 1.59518 5.9375 1.25 5.9375C0.904823 5.9375 0.625001 6.21732 0.625001 6.5625L0.625 9.6875C0.625 10.5077 1.28544 11.2108 1.28544 11.2108C1.84503 11.8064 2.82364 12.2467 2.82364 12.2467C4.77573 13.125 7.5 13.125 7.5 13.125C10.2243 13.125 12.1764 12.2467 12.1764 12.2467C13.155 11.8064 13.7146 11.2108 13.7146 11.2108C14.375 10.5077 14.375 9.6875 14.375 9.6875Z" fill="white"/>
<path d="M4.375 9.14062V12.2656C4.375 12.6108 4.65482 12.8906 5 12.8906C5.34518 12.8906 5.625 12.6108 5.625 12.2656V9.14062C5.625 8.79545 5.34518 8.51562 5 8.51562C4.65482 8.51562 4.375 8.79545 4.375 9.14062Z" fill="white"/>
<path d="M13.8097 6.93255C16.0954 7.14572 17.6181 7.97448 17.6181 7.97448C19.375 8.93069 19.375 10.3125 19.375 10.3125C19.375 11.1327 18.7146 11.8358 18.7146 11.8358C18.155 12.4314 17.1764 12.8717 17.1764 12.8717C15.2243 13.75 12.5 13.75 12.5 13.75C10.1189 13.75 8.25949 13.0548 8.25949 13.0548C8.25864 13.0545 8.25779 13.0542 8.25779 13.0542L8.25757 13.0541C8.10232 12.996 7.9765 12.8787 7.90779 12.7278C7.87377 12.6531 7.85479 12.5725 7.85194 12.4904C7.85169 12.4832 7.85156 12.476 7.85156 12.4687C7.85156 12.394 7.86498 12.3198 7.89118 12.2498C7.98101 12.0096 8.20837 11.8487 8.4647 11.8439L8.47656 11.8438C8.55134 11.8438 8.62551 11.8572 8.69555 11.8834C10.3438 12.5 12.5 12.5 12.5 12.5C14.956 12.5 16.6635 11.7318 16.6635 11.7318C17.4147 11.3938 17.8035 10.9799 17.8035 10.9799C18.125 10.6377 18.125 10.3125 18.125 10.3125C18.125 9.6735 17.0206 9.0724 17.0206 9.0724C15.723 8.36618 13.692 8.17699 13.692 8.17699C13.3707 8.14706 13.125 7.87741 13.125 7.55469C13.125 7.53594 13.1258 7.5172 13.1275 7.49853L13.1277 7.49672C13.1412 7.35161 13.205 7.21579 13.3081 7.11275C13.3217 7.09906 13.3361 7.08602 13.351 7.07366C13.4631 6.98061 13.6043 6.92969 13.75 6.92969C13.7687 6.92969 13.7875 6.93053 13.8062 6.93222L13.808 6.93238L13.8082 6.9324L13.8097 6.93255Z" fill="white"/>
<path d="M19.375 13.4375V10.3125C19.375 9.96732 19.0952 9.6875 18.75 9.6875C18.4048 9.6875 18.125 9.96732 18.125 10.3125V13.4375C18.125 13.7627 17.8035 14.1049 17.8035 14.1049C17.4147 14.5188 16.6635 14.8568 16.6635 14.8568C14.956 15.625 12.5 15.625 12.5 15.625C10.044 15.625 8.33652 14.8568 8.33652 14.8568C7.58533 14.5188 7.19649 14.1049 7.19649 14.1049C6.875 13.7627 6.875 13.4375 6.875 13.4375L6.875 12.4453C6.875 12.1001 6.59518 11.8203 6.25 11.8203C5.90482 11.8203 5.625 12.1001 5.625 12.4453L5.625 13.4375C5.625 14.2577 6.28544 14.9608 6.28544 14.9608C6.84503 15.5564 7.82364 15.9967 7.82364 15.9967C9.77573 16.875 12.5 16.875 12.5 16.875C15.2243 16.875 17.1764 15.9967 17.1764 15.9967C18.155 15.5564 18.7146 14.9608 18.7146 14.9608C19.375 14.2577 19.375 13.4375 19.375 13.4375Z" fill="white"/>
<path d="M14.375 12.8906V16.0156C14.375 16.3608 14.6548 16.6406 15 16.6406C15.3452 16.6406 15.625 16.3608 15.625 16.0156V12.8906C15.625 12.5454 15.3452 12.2656 15 12.2656C14.6548 12.2656 14.375 12.5454 14.375 12.8906Z" fill="white"/>
<path d="M9.375 9.14062V16.0156C9.375 16.3608 9.65482 16.6406 10 16.6406C10.3452 16.6406 10.625 16.3608 10.625 16.0156V9.14062C10.625 8.79545 10.3452 8.51562 10 8.51562C9.65482 8.51562 9.375 8.79545 9.375 9.14062Z" fill="white"/>
</svg>
